<?xml version="1.0" encoding="UTF-8"?>
<svg id="Layer_1" data-name="Layer 1" xmlns="http://www.w3.org/2000/svg" viewBox="0 0 402 479.33">
  <defs>
    <style>
      .cls-1 {
        fill: #ef1161;
      }

      .cls-2 {
        fill: #ffc11e;
      }

      .cls-3 {
        fill: #fc6e6b;
      }
    </style>
  </defs>
  <path class="cls-2" d="M88.71,141.28l126.5-72.99c1.25-.72,2.02-2.05,2.02-3.5V21.02c.01-6.48-2.65-12.9-7.82-16.81-6.69-5.06-15.28-5.56-22.33-1.48L10.13,104.84C3.91,108.43.07,115.07.07,122.25l-.07,230.6c0,6.47,2.65,12.89,7.81,16.81,6.68,5.07,15.29,5.57,22.35,1.49l37.48-21.62c1.25-.72,2.02-2.05,2.02-3.5l.05-171.85c0-13.58,7.24-26.11,19-32.9Z"/>
  <path class="cls-1" d="M391.95,108.2c-3.15-1.82-6.61-2.73-10.06-2.73s-6.9.91-10.05,2.73l-176.96,102.1c-6.2,3.58-10.06,10.25-10.06,17.41l-.07,231.47c0,7.27,3.76,13.78,10.05,17.42,6.3,3.64,13.81,3.64,20.11,0l176.95-102.11c6.2-3.58,10.06-10.25,10.06-17.41l.08-231.46c0-7.27-3.76-13.79-10.05-17.42Z"/>
  <path class="cls-3" d="M185.95,194.81l116.78-67.38c1.25-.72,2.02-2.05,2.02-3.5l.02-50.98c0-6.48-2.66-12.9-7.83-16.81-6.69-5.06-15.27-5.55-22.33-1.48l-48.43,27.95-128.54,74.16c-6.22,3.59-10.06,10.23-10.06,17.41l-.05,174.18-.02,56.41c0,6.48,2.65,12.89,7.81,16.81,6.69,5.07,15.29,5.57,22.35,1.49l47.2-27.24c1.25-.72,2.02-2.05,2.02-3.5l.05-164.64c0-13.56,7.25-26.1,19.01-32.88Z"/>
</svg>